<?xml version='1.0' encoding='utf-8'?>
<svg xmlns="http://www.w3.org/2000/svg" enable-background="new 0 0 256 256" version="1.1" viewBox="0 0 256 256"> <path d="m223.38 127.73c4.556 0 8.25 3.694 8.25 8.25s-3.694 8.25-8.25 8.25" fill="#EDEBB9"/> <path d="m223.38 146.23v-4c3.446 0 6.25-2.804 6.25-6.25s-2.804-6.25-6.25-6.25v-4c5.652 0 10.25 4.598 10.25 10.25s-4.598 10.25-10.25 10.25z"/> <path d="m202.54 114.98h-6.097c-7.009 0-13.035-4.968-14.371-11.849l-2.699-31.651c0-0.931-10.755-9.5-11.686-9.5h-128.79c-8.019 0-14.52 6.501-14.52 14.52v95.5c0 1.094 0.887 1.98 1.98 1.98h190.33c4.777 0 8.686-3.909 8.686-8.686v-27.48c0-12.559-10.275-22.834-22.833-22.834z" fill="#F2C900"/> <circle cx="184.38" cy="174.02" r="20" fill="#191919"/> <path d="m184.38 196.02c-12.131 0-22-9.869-22-22s9.869-22 22-22 22 9.869 22 22-9.869 22-22 22zm0-40c-9.925 0-18 8.075-18 18s8.075 18 18 18 18-8.075 18-18-8.075-18-18-18z"/> <circle cx="66.042" cy="174.02" r="20" fill="#191919"/> <path d="m66.042 196.02c-12.131 0-22-9.869-22-22s9.869-22 22-22 22 9.869 22 22-9.869 22-22 22zm0-40c-9.925 0-18 8.075-18 18s8.075 18 18 18 18-8.075 18-18-8.075-18-18-18z"/> <circle cx="66.042" cy="174.02" r="8" fill="#939393"/> <path d="m66.042 184.02c-5.514 0-10-4.486-10-10s4.486-10 10-10 10 4.486 10 10-4.486 10-10 10zm0-16c-3.309 0-6 2.691-6 6s2.691 6 6 6 6-2.691 6-6-2.691-6-6-6z"/> <circle cx="184.38" cy="174.02" r="8" fill="#939393"/> <path d="m184.38 184.02c-5.514 0-10-4.486-10-10s4.486-10 10-10 10 4.486 10 10-4.486 10-10 10zm0-16c-3.309 0-6 2.691-6 6s2.691 6 6 6 6-2.691 6-6-2.691-6-6-6z"/> <path d="m61.375 111.98h-21c-2.209 0-4-1.791-4-4v-30c0-2.209 1.791-4 4-4h21c2.209 0 4 1.791 4 4v30c0 2.209-1.791 4-4 4z" fill="#1CBBF2"/> <path d="m61.375 113.98h-21c-3.309 0-6-2.691-6-6v-30c0-3.309 2.691-6 6-6h21c3.309 0 6 2.691 6 6v30c0 3.309-2.691 6-6 6zm-21-38c-1.103 0-2 0.897-2 2v30c0 1.103 0.897 2 2 2h21c1.103 0 2-0.897 2-2v-30c0-1.103-0.897-2-2-2h-21z"/> <path d="m102.38 111.98h-21c-2.209 0-4-1.791-4-4v-30c0-2.209 1.791-4 4-4h21c2.209 0 4 1.791 4 4v30c0 2.209-1.791 4-4 4z" fill="#1CBBF2"/> <path d="m102.38 113.98h-21c-3.309 0-6-2.691-6-6v-30c0-3.309 2.691-6 6-6h21c3.309 0 6 2.691 6 6v30c0 3.309-2.691 6-6 6zm-21-38c-1.103 0-2 0.897-2 2v30c0 1.103 0.897 2 2 2h21c1.103 0 2-0.897 2-2v-30c0-1.103-0.897-2-2-2h-21z"/> <path d="m143.38 111.98h-21c-2.209 0-4-1.791-4-4v-30c0-2.209 1.791-4 4-4h21c2.209 0 4 1.791 4 4v30c0 2.209-1.791 4-4 4z" fill="#1CBBF2"/> <path d="m143.38 113.98h-21c-3.309 0-6-2.691-6-6v-30c0-3.309 2.691-6 6-6h21c3.309 0 6 2.691 6 6v30c0 3.309-2.691 6-6 6zm-21-38c-1.103 0-2 0.897-2 2v30c0 1.103 0.897 2 2 2h21c1.103 0 2-0.897 2-2v-30c0-1.103-0.897-2-2-2h-21z"/> <path d="m179.38 73.98h-15c-2.209 0-4 1.791-4 4v30c0 2.209 1.791 4 4 4h20.209v-3.057" fill="#1CBBF2"/> <path d="m186.58 113.98h-22.209c-3.309 0-6-2.691-6-6v-30c0-3.309 2.691-6 6-6h15v4h-15c-1.103 0-2 0.897-2 2v30c0 1.103 0.897 2 2 2h18.209v-1.057h4v5.057z"/> <path d="m215.71 173.98c0-17.305-14.028-31.333-31.333-31.333s-31.333 14.028-31.333 31.333h62.666z" fill="#F2C900"/> <path d="m217.71 175.98h-66.666v-2c0-18.38 14.953-33.333 33.333-33.333s33.333 14.953 33.333 33.333v2zm-62.599-4h58.531c-1.031-15.245-13.764-27.333-29.266-27.333s-28.233 12.088-29.265 27.333z"/> <path d="m97.375 173.98c0-17.305-14.028-31.333-31.333-31.333s-31.333 14.028-31.333 31.333h62.666z" fill="#F2C900"/> <path d="m99.375 175.98h-66.667v-2c0-18.38 14.953-33.333 33.334-33.333 18.38 0 33.333 14.953 33.333 33.333v2zm-62.6-4h58.532c-1.031-15.245-13.764-27.333-29.266-27.333s-28.234 12.088-29.266 27.333z"/> <path d="m118.38 176.02c-1.104 0-2-0.896-2-2v-49.04c0-1.104 0.896-2 2-2s2 0.896 2 2v49.039c0 1.105-0.896 2.001-2 2.001z"/> <rect x="145.38" y="107.98" width="4" height="66.039"/> <path d="m216.69 175.98h-190.33c-2.195 0-3.98-1.786-3.98-3.98v-95.5c0-9.109 7.41-16.52 16.52-16.52h124.67c10.1 0 18.47 7.898 19.056 17.982l1.443 24.915c1.2 5.862 6.388 10.104 12.383 10.104h6.097c13.693 0 24.833 11.14 24.833 24.833v27.48c-1e-3 5.893-4.795 10.686-10.688 10.686zm-177.79-112c-6.903 0-12.52 5.616-12.52 12.52v95.5l190.31-0.02c3.687 0 6.687-3 6.687-6.687v-27.48c0-11.487-9.346-20.833-20.833-20.833h-6.097c-7.949 0-14.819-5.664-16.334-13.468l-0.034-0.266-1.452-25.053c-0.462-7.97-7.078-14.213-15.062-14.213h-124.67z"/> </svg>